<?xml version="1.0" encoding="iso-8859-1"?>
<!-- Uploaded to: SVG Repo, www.svgrepo.com, Generator: SVG Repo Mixer Tools -->
<!DOCTYPE svg PUBLIC "-//W3C//DTD SVG 1.1//EN" "http://www.w3.org/Graphics/SVG/1.1/DTD/svg11.dtd">
<svg fill="#000000" height="800px" width="800px" version="1.1" id="Capa_1" xmlns="http://www.w3.org/2000/svg" xmlns:xlink="http://www.w3.org/1999/xlink" 
	 viewBox="0 0 58.005 58.005" xml:space="preserve">
<g>
	<path d="M36.333,24.953c0.524-0.174,0.807-0.74,0.632-1.265c-0.174-0.523-0.739-0.807-1.265-0.632l-0.684,0.228v-1.28v-4.414
		l-3.586-3.586h-6.828l-3.586,3.586v4.414v2v3.633l-1.303,0.414c-0.526,0.167-0.817,0.729-0.65,1.256
		c0.135,0.426,0.529,0.697,0.953,0.697c0.101,0,0.203-0.015,0.303-0.047l0.697-0.221v3.902l-1.303,0.414
		c-0.526,0.167-0.817,0.729-0.65,1.256c0.135,0.426,0.529,0.697,0.953,0.697c0.101,0,0.203-0.015,0.303-0.047l0.697-0.221v3.902
		l-1.303,0.414c-0.526,0.167-0.817,0.729-0.65,1.256c0.135,0.426,0.529,0.697,0.953,0.697c0.101,0,0.203-0.015,0.303-0.047
		l0.697-0.221v3.902l-1.303,0.414c-0.526,0.167-0.817,0.729-0.65,1.256c0.135,0.426,0.529,0.697,0.953,0.697
		c0.101,0,0.203-0.015,0.303-0.047l0.697-0.221v2.268h2v3.333l3.5,4.667h3l3.5-4.667v-3.333h2v-6.613l1.316-0.439
		c0.524-0.174,0.807-0.74,0.632-1.265c-0.174-0.523-0.739-0.807-1.265-0.632l-0.684,0.228v-3.892l1.316-0.439
		c0.524-0.174,0.807-0.74,0.632-1.265c-0.174-0.523-0.739-0.807-1.265-0.632l-0.684,0.228v-3.892l1.316-0.439
		c0.524-0.174,0.807-0.74,0.632-1.265c-0.174-0.523-0.739-0.807-1.265-0.632l-0.684,0.228v-3.892L36.333,24.953z M23.017,18.419
		l2.414-2.414h5.172l2.414,2.414v3.586h-10V18.419z M33.017,29.951L30.7,30.723c-0.524,0.174-0.807,0.74-0.632,1.265
		c0.14,0.419,0.53,0.684,0.949,0.684c0.104,0,0.211-0.017,0.316-0.052l1.684-0.561v3.893L30.7,36.723
		c-0.524,0.174-0.807,0.74-0.632,1.265c0.14,0.419,0.53,0.684,0.949,0.684c0.104,0,0.211-0.017,0.316-0.052l1.684-0.561v3.893
		L30.7,42.723c-0.524,0.174-0.807,0.74-0.632,1.265c0.14,0.419,0.53,0.684,0.949,0.684c0.104,0,0.211-0.017,0.316-0.052l1.684-0.561
		v3.946h-2v4.667l-2.5,3.333h-1l-2.5-3.333v-4.667h-2v-0.903l4.303-1.366c0.526-0.167,0.817-0.729,0.65-1.256
		c-0.167-0.527-0.732-0.82-1.256-0.65l-3.697,1.174v-3.901l4.303-1.366c0.526-0.167,0.817-0.729,0.65-1.256
		c-0.167-0.527-0.732-0.82-1.256-0.65l-3.697,1.174v-3.901l4.303-1.366c0.526-0.167,0.817-0.729,0.65-1.256
		c-0.167-0.526-0.732-0.818-1.256-0.65l-3.697,1.174v-3.901l4.303-1.366c0.526-0.167,0.817-0.729,0.65-1.256
		c-0.167-0.526-0.732-0.818-1.256-0.65l-3.697,1.174v-2.998h9.839L30.7,24.723c-0.524,0.174-0.807,0.74-0.632,1.265
		c0.14,0.419,0.53,0.684,0.949,0.684c0.104,0,0.211-0.017,0.316-0.052l1.684-0.561V29.951z"/>
	<path d="M54.105,10.91c-0.829-3.166-3.254-6.189-6.829-8.514c-4.408-2.865-10.642-3.184-16.267-0.833L30.81,1.649
		c-0.095,0.042-0.188,0.084-0.283,0.117c-0.472,0.165-0.833,0.307-1.128,0.423c-0.938,0.369-0.938,0.367-2.479-0.092
		c-4.395-1.311-9.99-2.616-14.283-1.079C6.832,3.096,1.687,9.977,3.278,20.662c0.188,1.258,0.37,2.526,0.554,3.801
		c0.436,3.026,0.886,6.156,1.415,9.248c0.247,1.442,1.096,2.72,2.33,3.503c0.818,0.52,1.759,0.788,2.705,0.788
		c0.442,0,0.885-0.059,1.316-0.178c1.649-0.456,3.467-0.818,5.556-1.107c0.547-0.075,0.93-0.58,0.854-1.127
		c-0.076-0.548-0.584-0.931-1.127-0.854c-2.178,0.301-4.081,0.68-5.816,1.16c-0.822,0.229-1.68,0.097-2.416-0.371
		c-0.758-0.48-1.279-1.265-1.431-2.152c-0.524-3.065-0.973-6.182-1.407-9.195c-0.184-1.277-0.367-2.549-0.555-3.811
		C3.832,10.804,8.275,4.704,13.31,2.901c3.788-1.359,9.255-0.015,13.038,1.112c2.016,0.603,2.334,0.605,3.781,0.037
		c0.277-0.108,0.617-0.242,1.059-0.396c0.143-0.051,0.284-0.111,0.427-0.174l0.165-0.071c5.024-2.101,10.544-1.848,14.406,0.665
		c3.157,2.051,5.282,4.659,5.984,7.342c1.767,6.753,0.479,14.476-1.175,21.816c-0.187,0.827-0.683,1.524-1.397,1.964
		c-0.726,0.448-1.587,0.576-2.43,0.366c-2.364-0.593-5.004-1.001-8.07-1.248c-0.561-0.053-1.033,0.366-1.077,0.917
		c-0.044,0.551,0.366,1.032,0.917,1.077c2.955,0.237,5.488,0.628,7.744,1.193c1.367,0.345,2.776,0.131,3.965-0.602
		c1.178-0.725,1.995-1.871,2.301-3.229C54.657,26.085,55.981,18.076,54.105,10.91z"/>
</g>
</svg>